<svg xmlns="http://www.w3.org/2000/svg" version="1.1" xmlns:xlink="http://www.w3.org/1999/xlink" xmlns:svgjs="http://svgjs.com/svgjs" x="0" y="0" viewBox="0 0 152 152" style="enable-background:new 0 0 512 512" xml:space="preserve" class=""><g><g xmlns="http://www.w3.org/2000/svg" id="Layer_2" data-name="Layer 2"><g id="Black_And_White" data-name="Black And White"><g id="_18.R" data-name="18.R"><path d="m83.47 53.78q2.81 3 2.8 8.13t-2.77 8.09q-2.77 2.89-8.27 2.89h-12.23v-22h12.2c3.66-.05 6.4.93 8.27 2.89z" fill="currentColor" data-original="#000000" class=""/><path d="m140 0h-128a12 12 0 0 0 -12 12v128a12 12 0 0 0 12 12h128a12 12 0 0 0 12-12v-128a12 12 0 0 0 -12-12zm-31.75 116h-20.66l-14.12-28.3h-10.47v28.3h-19.25v-80h31.48q14.24 0 22.25 6.31t8 17.84q0 8.34-3.38 13.83a24 24 0 0 1 -10.58 8.89l16.7 32.3z" fill="currentColor" data-original="#000000" class=""/></g></g></g></g></svg>